# xmcd
#
# Track frame offsets: 
#        150
#        10135
#        23765
#        34755
#        46148
#        55122
#        66821
#        77012
#        90899
#        104338
#        114659
#        125967
#        138157
#        152128
#        164458
#        175183
#        189247
#        200146
#
# Disc length: 2833 seconds
#
# Revision: 1
# Processed by: cddbd v1.5.2PL0 Copyright (c) Steve Scherf et al.
# Submitted via: ExactAudioCopy v1.0b3
#
DISCID=e80b0f12
DTITLE=Vaious Artists - The Groovesville Collection 
DYEAR=1900
DGENRE=Soul
TTITLE0=Pat Lewis - No One To Love
TTITLE1=Sam Ward - Stone Broke
TTITLE2=J. J. Barnes - Keep A Hold On Me
TTITLE3=Pat Lewis - Warning (instr.)
TTITLE4=The Debonaires - Loving You Takes All Of My Time
TTITLE5=The Holidays - Watchout
TTITLE6=Steve Mancha - Monday To Thursday
TTITLE7=Robert Ward - Never Alone
TTITLE8=The Professionals - That's Why I Love You (instr.)
TTITLE9=Rose Batiste - Hit And Run
TTITLE10=The Parliaments - Dont't Be Sore At Me
TTITLE11=The Professionals - That's Why I Love You (alt. take)
TTITLE12=Steve Mancha - Did My Baby Call (instr.)
TTITLE13=Steve Mancha - Still In My Heart
TTITLE14=Pat Lewis - Warning
TTITLE15=Rose Batiste - I Miss My Baby
TTITLE16=Johnny Goode - Payback
TTITLE17=The Holidays - I'll Love You Forever (instr.)
EXTD=
EXTT0=
EXTT1=
EXTT2=
EXTT3=
EXTT4=
EXTT5=
EXTT6=
EXTT7=
EXTT8=
EXTT9=
EXTT10=
EXTT11=
EXTT12=
EXTT13=
EXTT14=
EXTT15=
EXTT16=
EXTT17=
PLAYORDER=
